<?xml version="1.0" encoding="utf-8"?>
<svg xmlns="http://www.w3.org/2000/svg" xmlns:xlink="http://www.w3.org/1999/xlink" version="1.1" style="width:0;height:0;position:absolute;overflow:hidden;">
  <defs>
<symbol viewBox="0 0 1792 1536" aria-labelledby="gcsi-awesome-comment-o-title" id="si-awesome-comment-o"><title id="gcsi-awesome-comment-o-title">icon comment-o</title><path d="M896 128q-204 0-381.5 69.5T232.5 385 128 640q0 112 71.5 213.5T401 1029l87 50-27 96q-24 91-70 172 152-63 275-171l43-38 57 6q69 8 130 8 204 0 381.5-69.5t282-187.5T1664 640t-104.5-255-282-187.5T896 128zm896 512q0 174-120 321.5t-326 233-450 85.5q-70 0-145-8-198 175-460 242-49 14-114 22h-5q-15 0-27-10.5t-16-27.5v-1q-3-4-.5-12t2-10 4.5-9.5l6-9 7-8.5 8-9q7-8 31-34.5t34.5-38 31-39.5 32.5-51 27-59 26-76q-157-89-247.5-220T0 640q0-174 120-321.5t326-233T896 0t450 85.5 326 233T1792 640z"/></symbol>
<symbol viewBox="0 0 1792 1537.33349609375" aria-labelledby="gbsi-awesome-comment-title" id="si-awesome-comment"><title id="gbsi-awesome-comment-title">icon comment</title><path d="M1792 640q0 174-120 321.5t-326 233-450 85.5q-70 0-145-8-198 175-460 242-49 14-114 22-17 2-30.5-9t-17.5-29v-1q-3-4-.5-12t2-10 4.5-9.5l6-9 7-8.5 8-9q7-8 31-34.5t34.5-38 31-39.5 32.5-51 27-59 26-76q-157-89-247.5-220T0 640q0-130 71-248.5T262 187 548 50.5 896 0q244 0 450 85.5t326 233T1792 640z"/></symbol>
<symbol viewBox="0 0 1664 1536" aria-labelledby="hjsi-awesome-download-title" id="si-awesome-download"><title id="hjsi-awesome-download-title">icon download</title><path d="M1280 1344q0-26-19-45t-45-19-45 19-19 45 19 45 45 19 45-19 19-45zm256 0q0-26-19-45t-45-19-45 19-19 45 19 45 45 19 45-19 19-45zm128-224v320q0 40-28 68t-68 28H96q-40 0-68-28t-28-68v-320q0-40 28-68t68-28h465l135 136q58 56 136 56t136-56l136-136h464q40 0 68 28t28 68zm-325-569q17 41-14 70l-448 448q-18 19-45 19t-45-19L339 621q-31-29-14-70 17-39 59-39h256V64q0-26 19-45t45-19h256q26 0 45 19t19 45v448h256q42 0 59 39z"/></symbol>
<symbol viewBox="0 0 1792 1152" aria-labelledby="ihsi-awesome-eye-title" id="si-awesome-eye"><title id="ihsi-awesome-eye-title">icon eye</title><path d="M1664 576q-152-236-381-353 61 104 61 225 0 185-131.5 316.5T896 896 579.5 764.5 448 448q0-121 61-225-229 117-381 353 133 205 333.5 326.5T896 1024t434.5-121.5T1664 576zM944 192q0-20-14-34t-34-14q-125 0-214.5 89.5T592 448q0 20 14 34t34 14 34-14 14-34q0-86 61-147t147-61q20 0 34-14t14-34zm848 384q0 34-20 69-140 230-376.5 368.5T896 1152t-499.5-139T20 645Q0 610 0 576t20-69q140-229 376.5-368T896 0t499.5 139T1772 507q20 35 20 69z"/></symbol>
<symbol viewBox="0 0 1792 1536" aria-labelledby="lxsi-awesome-heart-o-title" id="si-awesome-heart-o"><title id="lxsi-awesome-heart-o-title">icon heart-o</title><path d="M1664 468q0-81-21.5-143t-55-98.5T1506 167t-94-31-98-8-112 25.5-110.5 64-86.5 72-60 61.5q-18 22-49 22t-49-22q-24-28-60-61.5t-86.5-72-110.5-64T478 128t-98 8-94 31-81.5 59.5-55 98.5T128 468q0 168 187 355l581 560 580-559q188-188 188-356zm128 0q0 221-229 450l-623 600q-18 18-44 18t-44-18L228 916q-10-8-27.5-26T145 824.5 77 727 23.5 606 0 468q0-220 127-344T478 0q62 0 126.5 21.5t120 58T820 148t76 68q36-36 76-68t95.5-68.5 120-58T1314 0q224 0 351 124t127 344z"/></symbol>
<symbol viewBox="0 0 1792 1536" aria-labelledby="lwsi-awesome-heart-title" id="si-awesome-heart"><title id="lwsi-awesome-heart-title">icon heart</title><path d="M896 1536q-26 0-44-18L228 916q-10-8-27.5-26T145 824.5 77 727 23.5 606 0 468q0-220 127-344T478 0q62 0 126.5 21.5t120 58T820 148t76 68q36-36 76-68t95.5-68.5 120-58T1314 0q224 0 351 124t127 344q0 221-229 450l-623 600q-18 18-44 18z"/></symbol>
  </defs>
</svg>
